<svg xmlns="http://www.w3.org/2000/svg" xmlns:xlink="http://www.w3.org/1999/xlink" width="160.588" height="53.456" viewBox="0 0 160.588 53.456">
  <defs>
    <linearGradient id="linear-gradient" x1="-0.131" y1="0.852" x2="1.131" y2="0.148" gradientUnits="objectBoundingBox">
      <stop offset="0" stop-color="#4577a6"/>
      <stop offset="0.24" stop-color="#5cb573"/>
      <stop offset="0.49" stop-color="#73f340"/>
    </linearGradient>
  </defs>
  <g id="voit-logo" transform="translate(-56.87 -89.17)">
    <path id="Path_35" data-name="Path 35" d="M231.709,89.17h-17.45L189.15,142.626H206.6Z" transform="translate(-110.297)" fill="url(#linear-gradient)"/>
    <path id="Path_36" data-name="Path 36" d="M56.87,149.1H74.384l18.053,33.924H75.219Z" transform="translate(0 -49.97)" fill="#73f340"/>
    <path id="Path_37" data-name="Path 37" d="M498.286,207.442l6.129-19.942h8.966l-9.754,27.487H493.233L483.48,187.5h9.014Z" transform="translate(-355.713 -81.989)"/>
    <path id="Path_38" data-name="Path 38" d="M691.348,191.794a12.714,12.714,0,0,0-5.124-4.951,16.28,16.28,0,0,0-14.58,0,12.714,12.714,0,0,0-5.124,4.951,15.96,15.96,0,0,0-.025,14.95,12.614,12.614,0,0,0,5.074,4.926,15.159,15.159,0,0,0,7.264,1.725,15.442,15.442,0,0,0,7.312-1.725,12.814,12.814,0,0,0,5.172-4.951,14.428,14.428,0,0,0,1.9-7.462A14.662,14.662,0,0,0,691.348,191.794Zm-7.427,10.732a5.467,5.467,0,0,1-2.071,2.237,5.625,5.625,0,0,1-2.93.778,5.511,5.511,0,0,1-2.908-.779,5.391,5.391,0,0,1-2.032-2.225,8.027,8.027,0,0,1,.01-6.752,5.432,5.432,0,0,1,2.051-2.237,5.87,5.87,0,0,1,5.84,0,5.433,5.433,0,0,1,2.051,2.237,7.287,7.287,0,0,1,.749,3.37A7.2,7.2,0,0,1,683.921,202.526Z" transform="translate(-506.775 -80.004)"/>
    <path id="Path_39" data-name="Path 39" d="M863.277,129.462a3.912,3.912,0,0,1-1.567-1.522,4.931,4.931,0,0,1,.008-4.618,3.934,3.934,0,0,1,1.582-1.529,5.034,5.034,0,0,1,4.5,0,3.934,3.934,0,0,1,1.582,1.529,4.514,4.514,0,0,1,.578,2.305,4.459,4.459,0,0,1-.585,2.305,3.969,3.969,0,0,1-1.6,1.531,4.786,4.786,0,0,1-2.258.532A4.7,4.7,0,0,1,863.277,129.462Z" transform="translate(-670.611 -26.757)"/>
    <rect id="Rectangle_28" data-name="Rectangle 28" width="8.422" height="27.487" transform="translate(190.725 105.509)"/>
    <path id="Path_40" data-name="Path 40" d="M938.988,153.856l-.047-6.676h8.424v6.7h5.517v6.995h-5.517v11.038a2.307,2.307,0,0,0,.592,1.773,2.885,2.885,0,0,0,1.969.542h3v7.146h-4.293a10.5,10.5,0,0,1-7.146-2.242q-2.564-2.242-2.563-7.312l.055-17.745" transform="translate(-735.473 -48.369)"/>
  </g>
</svg>
